<svg xmlns="http://www.w3.org/2000/svg" viewBox="0 0 700 300"><rect width="700" height="300" rx="28" fill="#eff6ff"/><circle cx="580" cy="60" r="34" fill="#fde68a"/><path d="M0 210 Q110 175 220 210 T450 205 T700 212 V300 H0Z" fill="#7dd3fc"/><path d="M0 245 Q110 215 220 247 T440 242 T700 250 V300 H0Z" fill="#38bdf8"/><g transform="translate(330 132)"><path d="M-80 10 A80 80 0 0 1 80 10" fill="none" stroke="#4338ca" stroke-width="18" stroke-linecap="round"/><rect x="-102" y="6" width="42" height="90" rx="18" fill="#6366f1"/><rect x="60" y="6" width="42" height="90" rx="18" fill="#6366f1"/><path d="M-132 -42 q-28 -22 -50 0 M120 -52 q34 -28 56 0 M-165 22 q-28 20 -50 -2" fill="none" stroke="#60a5fa" stroke-width="8" stroke-linecap="round"/></g><text x="35" y="278" font-family="Arial" font-size="22" font-weight="700" fill="#1e3a8a">Bahía de los Sonidos</text></svg>
